# Made in Blockbench 4.12.2
mtllib endermite_egg.mtl

o cube
v 0.3125 0.75 0.3125
v 0.3125 0.75 -0.3125
v 0.3125 0 0.3125
v 0.3125 0 -0.3125
v -0.3125 0.75 -0.3125
v -0.3125 0.75 0.3125
v -0.3125 0 -0.3125
v -0.3125 0 0.3125
vt 0 1
vt 0.3125 1
vt 0.3125 0.625
vt 0 0.625
vt 0.3125 1
vt 0.625 1
vt 0.625 0.625
vt 0.3125 0.625
vt 0 1
vt 0.3125 1
vt 0.3125 0.625
vt 0 0.625
vt 0.3125 1
vt 0.625 1
vt 0.625 0.625
vt 0.3125 0.625
vt 0.65625 0.96875
vt 0.96875 0.96875
vt 0.96875 0.65625
vt 0.65625 0.65625
vt 0.65625 0.625
vt 0.96875 0.625
vt 0.96875 0.3125
vt 0.65625 0.3125
vn 0 0 -1
vn 1 0 0
vn 0 0 1
vn -1 0 0
vn 0 1 0
vn 0 -1 0
usemtl m_6ffaa8b6-71e8-be5b-1dd3-e3d65f6e425e
f 4/4/1 7/3/1 5/2/1 2/1/1
f 3/8/2 4/7/2 2/6/2 1/5/2
f 8/12/3 3/11/3 1/10/3 6/9/3
f 7/16/4 8/15/4 6/14/4 5/13/4
f 6/20/5 1/19/5 2/18/5 5/17/5
f 7/24/6 4/23/6 3/22/6 8/21/6
